<svg width="131" height="91" viewBox="0 0 131 91" fill="none" xmlns="http://www.w3.org/2000/svg">
<path d="M0 59.6031C0 52.3804 2.26102 45.9741 6.78307 40.3216C11.3051 34.669 17.0205 31.0263 23.992 29.4561C25.939 20.8517 30.3982 13.8174 37.2441 8.29042C44.0899 2.76347 52.0035 0 60.8592 0C69.5264 0 77.2516 2.70067 84.0347 8.03919C90.8177 13.3777 95.2142 20.2864 97.224 28.7024H99.2966C104.949 28.7024 110.162 30.0842 114.935 32.7848C119.709 35.4855 123.54 39.2539 126.303 44.0271C129.067 48.8004 130.511 53.9505 130.511 59.6031C130.511 65.13 129.192 70.2801 126.554 74.9906C123.917 79.701 120.274 83.4694 115.689 86.2957C111.104 89.122 106.017 90.6293 100.553 90.8177H30.147C21.7309 90.4409 14.6338 87.2378 8.79287 81.2084C2.95189 75.2418 0 68.0191 0 59.6031ZM10.7399 59.6031C10.7399 65.0672 12.624 69.7777 16.3924 73.7973C20.1608 77.8169 24.7456 79.9523 30.147 80.2663H100.427C105.828 80.0151 110.413 77.8169 114.182 73.7973C118.013 69.7777 119.897 65.0044 119.897 59.6031C119.897 54.0761 117.824 49.3657 113.742 45.3461C109.66 41.3265 104.824 39.3167 99.1709 39.3167H89.122C88.4311 39.3167 88.0543 38.9398 88.0543 38.1862L87.6146 34.6062C86.9237 27.8231 83.9719 22.1078 78.8217 17.5229C73.6716 12.9381 67.7051 10.6142 60.8592 10.6142C54.0133 10.6142 47.9839 12.9381 42.9594 17.5229C37.8721 22.1078 34.983 27.8231 34.355 34.6062L33.8525 38.1862C33.8525 38.9398 33.4129 39.3167 32.5964 39.3167H29.2677C23.992 39.9447 19.5955 42.2058 16.0784 46.0369C12.5612 49.8681 10.7399 54.3901 10.7399 59.6031Z" fill="#FFEAEA"/>
</svg>
