<svg width="112" height="68" viewBox="0 0 112 68" fill="none" xmlns="http://www.w3.org/2000/svg">
<path d="M0 48.1376C0 43.5109 1.56326 39.3515 4.68978 35.7529C7.8163 32.1543 11.8001 29.8175 16.6916 28.7894C18.0027 23.3214 20.9779 18.7881 25.6677 15.3297C30.3575 11.8246 35.7533 10.0954 41.9054 10.0954C47.8559 10.0954 53.2013 11.7779 57.8406 15.1895C62.5304 18.6012 65.5561 22.9475 66.9176 28.2753H68.2792C74.2296 28.2753 79.2724 30.1914 83.4579 34.0704C87.6434 37.9494 89.7614 42.6229 89.7614 48.0909C89.7614 53.6056 87.6434 58.2791 83.4579 62.1581C79.2724 66.0371 74.2296 68 68.2792 68H21.5326C18.6078 68 15.8343 67.4859 13.2121 66.411C10.5898 65.3361 8.21972 64.0275 6.30347 62.2516C4.38721 60.4757 2.87438 58.3259 1.71454 55.8956C0.554705 53.4654 0 50.8015 0 48.1376ZM7.31202 48.1376C7.31202 51.6895 8.724 54.774 11.4471 57.2977C14.1702 59.8214 17.5488 61.13 21.4822 61.13H68.2792C72.1621 61.13 75.5407 59.8681 78.3143 57.2977C81.0878 54.7273 82.4998 51.6895 82.4998 48.1376C82.4998 44.5858 81.1382 41.5013 78.3143 38.9776C75.5407 36.4539 72.2125 35.1453 68.2792 35.1453H61.2697C60.7654 35.1453 60.5133 34.9117 60.5133 34.4443L60.1603 32.1543C59.656 27.7612 57.6389 24.0691 54.1594 21.1716C50.6799 18.274 46.5448 16.8252 41.8046 16.8252C37.0644 16.8252 32.9293 18.274 29.3994 21.2183C25.8694 24.1159 23.9027 27.8079 23.4489 32.1543L23.0959 34.1172C23.0959 34.5845 22.8438 34.8182 22.2891 34.8182L20.0198 35.1453C16.389 35.4257 13.3633 36.8278 10.8924 39.3047C8.57271 41.7817 7.31202 44.726 7.31202 48.1376ZM51.9406 7.38477C51.4363 7.80539 51.5371 8.13253 52.2936 8.3662C54.462 9.25417 56.2773 10.0954 57.7398 10.9366C58.2945 11.0768 58.6979 11.0301 58.8492 10.7964C61.9253 8.13253 65.4552 6.77722 69.5398 6.77722C73.6245 6.77722 77.104 8.03906 80.1297 10.5627C83.1049 13.0864 84.769 16.2177 85.122 19.9097L85.5759 22.9008H92.7366C96.0144 22.9008 98.8384 23.9757 101.208 26.1722C103.579 28.3688 104.738 30.9392 104.738 33.9302C104.738 36.7343 103.679 39.1645 101.612 41.2676C99.5443 43.3707 96.9725 44.5391 93.8964 44.8662C93.3922 44.8662 93.14 45.0999 93.14 45.614V50.895C93.14 51.4091 93.3922 51.6428 93.8964 51.6428C98.9896 51.3624 103.276 49.493 106.756 46.0813C110.235 42.6697 112 38.6037 112 33.9302C112 28.9763 110.134 24.7702 106.352 21.3118C102.57 17.8067 98.0315 16.0775 92.7366 16.0775H91.9802C90.6691 11.404 87.8955 7.57171 83.6596 4.53394C79.4741 1.49617 74.7339 0.000649134 69.5398 0.000649134C62.48 -0.0460858 56.5799 2.43087 51.9406 7.38477Z" fill="white"/>
</svg>
