<svg width="131" height="127" viewBox="0 0 131 127" fill="none" xmlns="http://www.w3.org/2000/svg">
<path d="M0 59.6209C0 52.3808 2.26647 45.9591 6.79943 40.2929C11.3324 34.6267 17.0615 31.0381 23.9869 29.4012C25.9386 20.839 30.4086 13.7877 37.2709 8.24745C44.1333 2.70718 52.003 0 60.8801 0C69.5682 0 77.249 2.70718 84.0485 8.05858C90.8479 13.41 95.2549 20.3353 97.2696 28.7717H99.2842C104.887 28.7717 110.113 30.1567 114.898 32.8639C119.683 35.5711 123.523 39.3485 126.293 44.0704C129.063 48.7922 130.511 54.0177 130.511 59.6209C130.511 65.1612 129.189 70.2607 126.545 74.9826C123.901 79.7044 120.249 83.4818 115.653 86.3149C111.057 89.148 106.021 90.659 100.543 90.7849C99.7249 90.7849 99.2842 90.4072 99.2842 89.7147V81.3413C99.2842 80.5858 99.7249 80.2081 100.543 80.2081C105.895 79.9562 110.491 77.8157 114.268 73.7864C118.046 69.7571 119.934 65.0353 119.934 59.5579C119.934 54.0806 117.857 49.3588 113.764 45.3295C109.672 41.3002 104.824 39.2856 99.2213 39.2856H89.0851C88.3296 39.2856 87.9519 38.9078 87.9519 38.2153L87.4482 34.5638C86.7557 27.7643 83.7966 22.0352 78.6971 17.5022C73.5345 12.9063 67.6165 10.6398 60.7541 10.6398C53.8917 10.6398 47.8478 12.9063 42.8112 17.5022C37.7116 22.0981 34.8785 27.7643 34.249 34.5638L33.8083 37.9005C33.8083 38.656 33.3676 39.0967 32.5491 39.0967L29.2124 39.2856C23.9869 39.9152 19.5798 42.1816 15.9912 46.022C12.4027 49.8625 10.6398 54.3954 10.6398 59.6209C10.6398 65.0982 12.5286 69.82 16.306 73.8493C20.0835 77.8786 24.6794 80.0192 30.0308 80.271C30.7233 80.271 31.1011 80.6488 31.1011 81.4043V89.7776C31.1011 90.4702 30.7233 90.8479 30.0308 90.8479C21.5945 90.4702 14.4803 87.2593 8.6252 81.2154C2.77014 75.1714 0 67.9943 0 59.6209ZM33.6823 101.74C33.6823 101.488 33.7453 101.047 33.9342 100.48L44.1963 64.1538C44.574 62.9577 45.2666 62.0133 46.2109 61.3837C47.1553 60.7541 48.1626 60.4394 49.107 60.4394C49.5477 60.4394 50.0513 60.5023 50.618 60.6282C52.1289 60.8801 53.2622 61.6985 54.0177 62.9577C54.7732 64.2168 54.962 65.6019 54.5213 67.1758L44.2592 103.251C43.5037 105.958 41.7409 107.28 39.0967 107.28C38.8449 107.28 38.656 107.217 38.4042 107.154C38.0264 107.028 37.8376 106.965 37.7746 106.965C36.3895 106.587 35.3822 105.895 34.6897 104.887C33.9971 103.817 33.6823 102.81 33.6823 101.74ZM50.1772 119.431L65.5389 64.2168C65.7907 63.0206 66.4203 62.0763 67.4277 61.4467C68.435 60.8171 69.4423 60.5023 70.5126 60.5023C71.0792 60.5023 71.6458 60.5653 72.2124 60.6912C73.5975 61.0689 74.6048 61.8874 75.2974 63.1465C75.9899 64.4057 76.1158 65.7278 75.7381 67.1758L60.4394 122.453C60.1875 123.523 59.6209 124.404 58.6136 125.16C57.6063 125.915 56.5989 126.293 55.4027 126.293C54.8361 126.293 54.2695 126.167 53.8288 125.978C52.5696 125.663 51.4994 124.845 50.555 123.523C49.8625 122.39 49.7365 121.068 50.1772 119.431ZM76.1788 101.865C76.1788 101.614 76.2417 101.173 76.4306 100.417L86.6927 64.0909C87.0704 62.8947 87.7 61.9503 88.5814 61.3208C89.5258 60.6912 90.4702 60.3764 91.4775 60.3764C91.9811 60.3764 92.5478 60.4393 93.1144 60.5653C94.4365 60.943 95.3808 61.5726 96.0104 62.517C96.64 63.4613 96.9548 64.4686 96.9548 65.476C96.9548 65.6648 96.8918 65.9796 96.8289 66.3574C96.7659 66.7351 96.703 66.9869 96.703 67.1129L86.4409 103.188C86.189 104.384 85.6224 105.391 84.678 106.084C83.7337 106.776 82.6634 107.154 81.4672 107.154L79.9562 106.839C78.6971 106.461 77.7527 105.832 77.0602 104.824C76.4935 103.88 76.1788 102.873 76.1788 101.865Z" fill="#FFEAEA"/>
</svg>
