<svg width="131" height="131" viewBox="0 0 131 131" fill="none" xmlns="http://www.w3.org/2000/svg">
<path d="M0 65.2556C0 63.7809 0.491568 62.4905 1.53615 61.446C2.58073 60.4628 3.87109 59.9713 5.22291 59.9713H17.7579C19.1711 59.9713 20.3386 60.4628 21.3218 61.5074C22.2434 62.552 22.735 63.7809 22.735 65.2556C22.735 66.7303 22.3049 67.9592 21.3832 69.0038C20.4615 70.0484 19.2326 70.54 17.8193 70.54H5.28435C3.8711 70.54 2.64218 70.0484 1.5976 69.0038C0.553015 67.9592 0 66.7303 0 65.2556ZM17.5735 107.838C17.5735 106.424 18.0651 105.195 18.9868 104.089L28.0194 95.3027C28.9411 94.3196 30.17 93.8894 31.6447 93.8894C33.1194 93.8894 34.3483 94.381 35.3314 95.3027C36.3146 96.2244 36.8061 97.3918 36.8061 98.8051C36.8061 100.28 36.3146 101.632 35.3314 102.738L26.6061 111.463C24.0868 113.429 21.5675 113.429 19.0482 111.463C18.0651 110.48 17.5735 109.251 17.5735 107.838ZM17.5735 22.7965C17.5735 21.3832 18.0651 20.1543 18.9868 19.0482C20.2157 18.0037 21.5061 17.5121 22.9193 17.5121C24.2712 17.5121 25.5001 18.0037 26.5447 18.9868L35.3314 28.0194C36.3146 28.9411 36.8061 30.17 36.8061 31.6447C36.8061 33.1194 36.3146 34.3483 35.3314 35.3314C34.3483 36.3146 33.1194 36.8061 31.6447 36.8061C30.17 36.8061 28.9411 36.3146 28.0194 35.3314L19.0482 26.5447C18.0651 25.5615 17.5735 24.2712 17.5735 22.7965ZM33.2423 65.2556C33.2423 59.5411 34.6555 54.1953 37.5435 49.2797C40.4314 44.364 44.3025 40.4314 49.2797 37.5435C54.2568 34.6555 59.5411 33.2423 65.2556 33.2423C69.5568 33.2423 73.6737 34.1025 77.6677 35.823C81.6002 37.5435 85.0412 39.817 87.8677 42.7049C90.7557 45.5929 93.0292 48.9724 94.6882 52.905C96.3473 56.8375 97.2075 61.0158 97.2075 65.3171C97.2075 71.093 95.7943 76.4388 92.9063 81.3545C90.0183 86.2701 86.1472 90.1412 81.2316 93.0292C76.3159 95.9171 70.9701 97.3304 65.1942 97.3304C59.4182 97.3304 54.0724 95.9171 49.1568 93.0292C44.2411 90.1412 40.37 86.2701 37.482 81.3545C34.717 76.3773 33.2423 71.0315 33.2423 65.2556ZM43.6881 65.2556C43.6881 71.2773 45.7772 76.3773 50.017 80.6171C54.1953 84.8569 59.2954 87.0075 65.3171 87.0075C71.3388 87.0075 76.4388 84.8569 80.6785 80.6171C84.9183 76.3773 87.0689 71.2773 87.0689 65.2556C87.0689 59.3568 84.9183 54.3182 80.6785 50.0785C76.4388 45.9001 71.3388 43.811 65.3171 43.811C59.3568 43.811 54.2568 45.9001 50.0785 50.0785C45.7772 54.3182 43.6881 59.3568 43.6881 65.2556ZM60.0327 113.061C60.0327 111.586 60.5243 110.357 61.5689 109.374C62.6134 108.391 63.8424 107.899 65.2556 107.899C66.7303 107.899 68.0207 108.391 69.0038 109.374C69.987 110.357 70.4785 111.586 70.4785 113.061V125.288C70.4785 126.763 69.987 128.053 68.9424 129.098C67.8978 130.143 66.6689 130.634 65.2556 130.634C63.8424 130.634 62.552 130.143 61.5689 129.098C60.5243 128.053 60.0327 126.763 60.0327 125.288V113.061ZM60.0327 17.8193V5.28435C60.0327 3.8711 60.5243 2.64218 61.5689 1.5976C62.6134 0.553015 63.8424 0 65.3171 0C66.7918 0 67.9592 0.491568 69.0038 1.53615C70.0484 2.58073 70.54 3.80965 70.54 5.22291V17.8193C70.54 19.2326 70.0484 20.4001 69.0038 21.3832C67.9592 22.3663 66.7303 22.7965 65.3171 22.7965C63.9038 22.7965 62.6134 22.3049 61.6303 21.3832C60.6472 20.4615 60.0327 19.2326 60.0327 17.8193ZM93.9509 98.8051C93.9509 97.3918 94.4424 96.2244 95.3641 95.3641C96.2858 94.381 97.4533 93.9509 98.8051 93.9509C100.28 93.9509 101.509 94.4424 102.492 95.3641L111.463 104.151C112.446 105.195 112.938 106.486 112.938 107.899C112.938 109.312 112.446 110.541 111.463 111.524C109.005 113.429 106.547 113.429 104.089 111.524L95.3641 102.799C94.4424 101.693 93.9509 100.403 93.9509 98.8051ZM93.9509 31.7061C93.9509 30.17 94.4424 28.941 95.3641 28.0808L104.089 19.0482C105.134 18.0651 106.363 17.5735 107.715 17.5735C109.189 17.5735 110.418 18.0651 111.402 19.1097C112.446 20.1543 112.938 21.3832 112.938 22.7965C112.938 24.3326 112.446 25.623 111.463 26.6061L102.492 35.3929C101.386 36.376 100.157 36.8676 98.8051 36.8676C97.3919 36.8676 96.2858 36.376 95.3641 35.3929C94.4424 34.4097 93.9509 33.1808 93.9509 31.7061ZM107.838 65.2556C107.838 63.7809 108.329 62.552 109.312 61.446C110.296 60.4628 111.463 59.9713 112.815 59.9713H125.227C126.64 59.9713 127.869 60.5243 128.914 61.5689C129.958 62.6134 130.511 63.8424 130.511 65.2556C130.511 66.6689 129.958 67.8978 128.914 68.9424C127.869 69.987 126.64 70.4785 125.227 70.4785H112.815C111.402 70.4785 110.173 69.987 109.251 68.9424C108.329 67.8978 107.838 66.7303 107.838 65.2556Z" fill="white"/>
</svg>
