<svg width="131" height="93" viewBox="0 0 131 93" fill="none" xmlns="http://www.w3.org/2000/svg">
<path d="M0 71.8735C0 70.6079 0.421854 69.5005 1.3183 68.6568C2.21474 67.8131 3.3221 67.3913 4.6404 67.3913H103.091C104.409 67.3913 105.464 67.8131 106.307 68.6568C107.151 69.5005 107.573 70.5552 107.573 71.8735C107.573 73.0863 107.151 74.1409 106.255 74.9319C105.358 75.7756 104.304 76.1447 103.091 76.1447H4.6404C3.3221 76.1447 2.21474 75.7229 1.3183 74.9319C0.421854 74.0882 0 73.0863 0 71.8735ZM13.8157 55.3157C13.8157 54.0501 14.2903 52.9955 15.1868 52.1518C15.9777 51.3608 17.0324 50.9389 18.2979 50.9389H116.748C117.961 50.9389 118.963 51.3608 119.807 52.2045C120.65 53.0482 121.02 54.0501 121.02 55.3157C121.02 56.5812 120.598 57.6359 119.807 58.4796C118.963 59.376 117.961 59.7979 116.748 59.7979H18.2979C17.0324 59.7979 15.9777 59.376 15.134 58.4796C14.2376 57.5831 13.8157 56.5285 13.8157 55.3157ZM14.5012 42.7128C14.5012 43.1874 14.7649 43.3983 15.2922 43.3983H22.8329C23.1493 43.3983 23.5184 43.1346 23.8875 42.5546C25.1531 39.8125 26.9987 37.5978 29.4771 35.8576C31.9555 34.1175 34.6975 33.1156 37.6505 32.9046L40.5508 32.5355C41.1308 32.5355 41.4472 32.2191 41.4472 31.5864L41.8163 28.9498C42.3964 23.2547 44.7693 18.5089 49.0406 14.7122C53.3119 10.9155 58.3214 9.01714 64.0692 9.01714C69.7642 9.01714 74.721 10.9155 78.9923 14.6594C83.2108 18.4034 85.6365 23.1493 86.2165 28.7916L86.6384 31.7973C86.6384 32.3773 87.0075 32.6937 87.693 32.6937H96.0774C99.4522 32.6937 102.563 33.5902 105.358 35.4358C108.153 37.2814 110.209 39.6543 111.581 42.66C111.95 43.2401 112.319 43.5037 112.688 43.5037H120.229C120.861 43.5037 121.125 43.1346 120.967 42.2909C119.438 36.9123 116.326 32.4828 111.791 29.0552C107.204 25.6277 101.983 23.9402 96.1301 23.9402H94.4427C92.7025 16.9269 89.0113 11.1791 83.369 6.69694C77.7267 2.21473 71.3461 0 64.1219 0C56.7394 0 50.2007 2.3202 44.4529 6.9606C38.7051 11.601 35.0667 17.507 33.432 24.6785C28.9498 25.7331 24.9949 27.8424 21.62 31.059C18.2452 34.2757 15.8723 38.0724 14.554 42.5546V42.3436C14.5012 42.3436 14.5012 42.5018 14.5012 42.7128ZM22.9911 88.0094C22.9911 86.7438 23.4657 85.7419 24.3621 84.8982C25.1531 84.1072 26.2077 83.6854 27.526 83.6854H126.029C127.295 83.6854 128.349 84.1072 129.193 84.8982C130.089 85.7419 130.511 86.7438 130.511 87.9567C130.511 89.2222 130.089 90.2769 129.193 91.1733C128.296 92.0697 127.242 92.4916 126.029 92.4916H27.526C26.3132 92.4916 25.2585 92.017 24.3621 91.1206C23.4657 90.3296 22.9911 89.2222 22.9911 88.0094Z" fill="#FFEAEA"/>
</svg>
