<svg width="131" height="131" viewBox="0 0 131 131" fill="none" xmlns="http://www.w3.org/2000/svg">
<path d="M0 65.4721C0 63.8267 0.606222 62.3544 1.73207 61.142C2.85791 59.9295 4.24357 59.3233 5.88903 59.3233C7.53449 59.3233 9.00675 59.9295 10.1326 61.142C11.2584 62.3544 11.8647 63.7401 11.8647 65.4721C11.8647 67.1176 11.2584 68.5032 10.1326 69.6291C9.00675 70.7549 7.53449 71.3611 5.97563 71.3611C4.41677 71.3611 2.94451 70.7549 1.81867 69.6291C0.51962 68.4166 0 67.031 0 65.4721ZM17.1475 65.4721C17.1475 63.8267 17.7537 62.3544 18.8795 61.142C20.0054 59.9295 21.391 59.3233 23.0365 59.3233H51.0094L31.2638 39.5777C30.0514 38.5385 29.4451 37.1528 29.4451 35.5074C29.4451 33.8619 30.0514 32.4763 31.2638 31.2638C32.4762 30.0514 33.8619 29.4451 35.5074 29.4451C37.1528 29.4451 38.5385 30.0514 39.7509 31.2638L59.4099 50.9228V23.1231C59.4099 21.4776 60.0161 20.0054 61.2286 18.7929C62.441 17.5805 63.8267 16.9743 65.5587 16.9743C67.2042 16.9743 68.5898 17.5805 69.7157 18.7929C70.8415 20.0054 71.4478 21.391 71.4478 23.1231V51.096L91.2799 31.1772C92.4924 29.9648 93.878 29.3585 95.4369 29.3585C96.9957 29.3585 98.468 29.9648 99.6804 31.1772C100.72 32.3896 101.239 33.7753 101.239 35.4208C101.239 37.0662 100.72 38.4519 99.6804 39.4911L79.9349 59.2367H107.908C109.467 59.2367 110.852 59.8429 111.978 61.0553C113.104 62.2678 113.71 63.6534 113.71 65.3855C113.71 66.9444 113.104 68.33 111.978 69.4559C110.852 70.5817 109.467 71.1879 107.908 71.1879H79.9349L99.767 91.0201C100.806 92.0593 101.326 93.445 101.326 95.0905C101.326 96.7359 100.806 98.1216 99.767 99.334C98.5546 100.546 97.0823 101.153 95.5235 101.153C93.9646 101.153 92.4924 100.546 91.3665 99.334L71.5344 79.4153V107.475C71.5344 109.12 70.9281 110.592 69.8023 111.718C68.6764 112.844 67.2908 113.45 65.6453 113.45C63.9999 113.45 62.5276 112.844 61.3152 111.718C60.1027 110.592 59.4965 109.12 59.4965 107.475V79.5885L39.8375 99.2474C38.6251 100.46 37.2394 101.066 35.594 101.066C33.9485 101.066 32.5629 100.46 31.3504 99.2474C30.138 98.035 29.5317 96.6493 29.5317 95.0039C29.5317 93.3584 30.138 92.0593 31.3504 90.9335L51.2692 71.1013H23.2097C21.5642 71.1013 20.1786 70.4951 19.0527 69.3693C17.6671 68.4166 17.1475 67.031 17.1475 65.4721ZM17.2341 107.388C17.2341 105.829 17.8403 104.357 19.0527 103.231C20.092 102.019 21.4776 101.412 23.1231 101.412C24.7686 101.412 26.1542 102.019 27.3667 103.231C28.5791 104.444 29.1853 105.829 29.1853 107.388C29.1853 108.947 28.5791 110.419 27.3667 111.545C26.1542 112.758 24.7686 113.364 23.1231 113.364C21.4776 113.364 20.092 112.758 19.0527 111.545C17.8403 110.419 17.2341 109.034 17.2341 107.388ZM17.2341 23.2963C17.2341 21.7374 17.8403 20.2652 19.0527 19.1393C20.092 17.9269 21.4776 17.3207 23.1231 17.3207C24.7686 17.3207 26.1542 17.9269 27.3667 19.1393C28.5791 20.3518 29.1853 21.7374 29.1853 23.2963C29.1853 24.8552 28.5791 26.3274 27.3667 27.5399C26.1542 28.7523 24.7686 29.3585 23.1231 29.3585C21.4776 29.3585 20.092 28.7523 19.0527 27.5399C17.8403 26.3274 17.2341 24.8552 17.2341 23.2963ZM59.2367 124.709C59.2367 123.15 59.8429 121.764 61.0554 120.638C62.2678 119.513 63.6535 118.906 65.3855 118.906C67.031 118.906 68.4166 119.513 69.5425 120.638C70.6683 121.764 71.2745 123.15 71.2745 124.709C71.2745 126.354 70.6683 127.827 69.5425 128.952C68.4166 130.078 67.031 130.684 65.3855 130.684C63.7401 130.684 62.2678 130.078 61.0554 128.952C59.8429 127.827 59.2367 126.441 59.2367 124.709ZM59.2367 5.97563C59.2367 4.33017 59.8429 2.85791 61.0554 1.73207C62.2678 0.606226 63.6535 0 65.3855 0C67.031 0 68.4166 0.606226 69.5425 1.73207C70.6683 2.85791 71.2745 4.33017 71.2745 5.97563C71.2745 7.53449 70.6683 8.92015 69.5425 10.046C68.4166 11.1718 67.031 11.7781 65.3855 11.7781C63.7401 11.7781 62.2678 11.1718 61.0554 10.046C59.8429 8.92015 59.2367 7.53449 59.2367 5.97563ZM101.413 107.388C101.413 105.829 102.019 104.357 103.231 103.231C104.27 102.019 105.656 101.412 107.302 101.412C108.947 101.412 110.333 102.019 111.545 103.231C112.758 104.444 113.364 105.829 113.364 107.388C113.364 108.947 112.758 110.419 111.545 111.545C110.333 112.758 108.947 113.364 107.302 113.364C105.656 113.364 104.27 112.758 103.231 111.545C102.019 110.419 101.413 109.034 101.413 107.388ZM101.413 23.2963C101.413 21.7374 102.019 20.2652 103.231 19.1393C104.27 17.9269 105.656 17.3207 107.302 17.3207C108.947 17.3207 110.333 17.9269 111.545 19.1393C112.758 20.3518 113.364 21.7374 113.364 23.2963C113.364 24.8552 112.758 26.3274 111.545 27.5399C110.333 28.7523 108.947 29.3585 107.302 29.3585C105.656 29.3585 104.27 28.7523 103.231 27.5399C102.019 26.3274 101.413 24.8552 101.413 23.2963ZM118.733 65.4721C118.733 63.8267 119.339 62.3544 120.465 61.142C121.591 59.9295 123.063 59.3233 124.709 59.3233C126.268 59.3233 127.653 59.9295 128.779 61.142C129.905 62.3544 130.511 63.7401 130.511 65.4721C130.511 67.031 129.905 68.4166 128.779 69.5425C127.653 70.6683 126.268 71.2745 124.709 71.2745C123.063 71.2745 121.591 70.6683 120.465 69.5425C119.339 68.4166 118.733 67.031 118.733 65.4721Z" fill="#FFEAEA"/>
</svg>
