<svg width="132" height="130" viewBox="0 0 132 130" fill="none" xmlns="http://www.w3.org/2000/svg">
<path d="M0.581665 60.5321C0.581665 67.5103 2.65626 73.7341 6.80547 79.2035C10.9547 84.6729 16.3612 88.4449 23.0251 90.4567L18.8759 101.018C18.6873 101.898 19.0016 102.401 19.756 102.401H33.1466L26.9857 129.434H28.7459L53.3897 93.2857C53.6411 93.0342 53.6411 92.7199 53.4525 92.4055C53.2639 92.0912 52.9496 91.9655 52.5096 91.9655H38.8046L54.3955 62.7953C54.8356 61.9152 54.5213 61.4122 53.5154 61.4122H35.0326C34.4668 61.4122 33.9639 61.7266 33.5867 62.3553L26.8599 80.398C22.3964 79.2664 18.6873 76.8146 15.7325 73.1055C12.7778 69.3963 11.3319 65.1842 11.3319 60.4692C11.3319 55.2513 13.0921 50.7249 16.6755 46.8272C20.2589 42.9923 24.6596 40.7291 29.8775 40.1004L33.2095 39.6604C34.0267 39.6604 34.4668 39.2832 34.4668 38.5288L34.9069 35.3226C35.5984 28.533 38.4274 22.8121 43.5196 18.2228C48.6118 13.6336 54.5842 11.3075 61.4366 11.3075C68.2891 11.3075 74.2614 13.6336 79.3536 18.2228C84.5087 22.8121 87.4006 28.533 88.155 35.3226L88.595 38.9688C88.595 39.6604 88.9722 40.0376 89.7266 40.0376H99.7853C105.506 40.0376 110.347 42.0493 114.37 46.0099C118.394 49.9705 120.468 54.8112 120.468 60.3435C120.468 65.6872 118.582 70.3393 114.873 74.2371C111.164 78.1348 106.512 80.3351 101.043 80.7752C100.225 80.7752 99.7853 81.1524 99.7853 81.9068V90.5195C99.7853 91.2111 100.225 91.5883 101.043 91.5883C109.404 91.3368 116.508 88.1306 122.354 82.0954C128.201 76.0602 131.093 68.8305 131.093 60.4064C131.093 54.7484 129.71 49.5304 126.881 44.7526C124.115 39.9747 120.28 36.2027 115.502 33.4366C110.661 30.6704 105.443 29.2874 99.7853 29.2874H97.8364C95.7618 20.9261 91.2983 14.0736 84.5716 8.79284C77.8448 3.51204 70.1122 0.808765 61.4366 0.808765C52.5724 0.808765 44.6512 3.5749 37.7987 9.0443C30.9463 14.5137 26.5456 21.5548 24.5967 30.1675C17.6185 31.802 11.8977 35.3854 7.37127 41.0434C2.84487 46.7014 0.581665 53.3024 0.581665 60.5321ZM51.7552 121.576C51.7552 124.027 52.9496 125.662 55.4014 126.416C55.4643 126.416 55.7157 126.416 56.0929 126.479C56.4701 126.542 56.7845 126.542 56.9731 126.542C58.0418 126.542 59.0477 126.228 60.0536 125.599C61.0594 124.97 61.751 123.965 62.0653 122.582L76.2103 67.9504C76.5875 66.4416 76.4618 65.1214 75.7702 63.8641C75.0787 62.6696 74.0728 61.8523 72.6269 61.4122C71.5582 61.2865 70.9924 61.2237 70.9924 61.2237C69.9865 61.2237 68.9806 61.538 68.0376 62.1666C67.0946 62.7953 66.4031 63.7383 66.0888 64.9957L51.8809 119.815C51.818 120.444 51.7552 121.01 51.7552 121.576ZM77.9077 102.338C77.9077 103.156 78.0963 103.973 78.5364 104.727C79.4165 106.11 80.4852 107.053 81.7426 107.494C82.4341 107.682 83.0628 107.808 83.6286 107.808C84.1944 107.808 84.8859 107.682 85.6403 107.305C86.9605 106.739 87.8406 105.545 88.2807 103.722L97.3335 68.0761C97.5221 67.196 97.6478 66.6302 97.6478 66.3787C97.6478 65.4357 97.3335 64.4927 96.642 63.5497C95.9504 62.6067 95.0074 61.9152 93.7501 61.538C92.6814 61.4122 92.1156 61.3494 92.1156 61.3494C91.0468 61.3494 90.041 61.6637 89.1608 62.2924C88.2807 62.9211 87.652 63.864 87.2748 65.1214L78.0963 100.955C78.0963 101.081 78.0963 101.27 78.0334 101.647C77.9077 101.961 77.9077 102.15 77.9077 102.338Z" fill="#FFEAEA"/>
</svg>
